<svg width="124" height="124" viewBox="0 0 124 124" fill="none" xmlns="http://www.w3.org/2000/svg">
<rect width="124" height="124" rx="62" fill="#FF4848" fill-opacity="0.25"/>
<g clip-path="url(#clip0)">
<path d="M68.8152 62.0013L81.6022 49.2143C83.0151 47.8015 83.0151 45.5109 81.6022 44.1003L79.8976 42.3956C78.4843 40.9824 76.1938 40.9824 74.7831 42.3956L61.9966 55.1822L49.2096 42.393C47.7967 40.9802 45.5062 40.9802 44.0956 42.393L42.3882 44.0977C40.9754 45.5109 40.9754 47.8015 42.3882 49.2121L55.1774 62.0013L42.3909 74.7879C40.9776 76.2012 40.9776 78.4917 42.3909 79.9023L44.0956 81.607C45.5084 83.0198 47.7989 83.0198 49.2096 81.607L61.9966 68.82L74.7831 81.607C76.1964 83.0198 78.487 83.0198 79.8976 81.607L81.6022 79.9023C83.0151 78.4891 83.0151 76.1985 81.6022 74.7879L68.8152 62.0013Z" fill="#FF4848"/>
</g>
<defs>
<clipPath id="clip0">
<rect width="41.3334" height="41.3334" fill="white" transform="translate(41.3286 41.3334)"/>
</clipPath>
</defs>
</svg>
