<svg width="24" height="24" viewBox="0 0 24 24" fill="none" xmlns="http://www.w3.org/2000/svg">
<path d="M11.9602 21.9668H2.99002C2.43984 21.9668 1.99336 21.5203 1.99336 20.9702V3.02992C1.99336 2.47975 2.43989 2.03326 2.99002 2.03326H11.9602C12.5113 2.03326 12.9568 1.58776 12.9568 1.03661C12.9568 0.48545 12.5113 0.039856 11.9602 0.039856H2.99002C1.34152 0.039856 0 1.38142 0 3.02992V20.9701C0 22.6186 1.34152 23.9601 2.99002 23.9601H11.9602C12.5113 23.9601 12.9568 23.5146 12.9568 22.9635C12.9568 22.4123 12.5113 21.9668 11.9602 21.9668Z" fill="#F00909"/>
<path d="M23.7027 11.2904L17.6429 5.31028C17.2522 4.92356 16.6203 4.92858 16.2336 5.32027C15.8469 5.71196 15.8509 6.34285 16.2436 6.72956L20.5741 11.0033H8.9698C8.41864 11.0033 7.97314 11.4488 7.97314 12C7.97314 12.5511 8.41864 12.9967 8.9698 12.9967H20.5741L16.2436 17.2704C15.8509 17.6571 15.8479 18.288 16.2336 18.6797C16.4289 18.877 16.6861 18.9767 16.9432 18.9767C17.1964 18.9767 17.4495 18.881 17.6429 18.6896L23.7027 12.7095C23.8921 12.5222 23.9997 12.267 23.9997 11.9999C23.9997 11.7329 23.893 11.4788 23.7027 11.2904Z" fill="#F00909"/>
</svg>
