<svg width="206" height="32" viewBox="0 0 206 32" fill="none" xmlns="http://www.w3.org/2000/svg">
<path d="M15.752 31.048C14.856 31.048 14.232 30.584 13.88 29.656C13.528 28.728 13.24 27.48 13.016 25.912L12.872 24.712C12.392 22.152 12.008 19.608 11.72 17.08C11.432 14.52 11.144 11.432 10.856 7.816L10.568 4.264C8.648 4.296 5.912 4.216 2.36 4.024L1.4 3.976C0.952 3.944 0.632 3.736 0.44 3.352C0.28 2.936 0.2 2.376 0.2 1.672H3.512C9.08 1.672 14.104 1.88 18.584 2.296C23.064 2.712 25.304 3.56 25.304 4.84C25.304 5.192 25.24 5.432 25.112 5.56C25.016 5.688 24.792 5.752 24.44 5.752C23.16 5.656 21.176 5.384 18.488 4.936C17.88 4.84 17.144 4.728 16.28 4.6C15.416 4.472 14.44 4.344 13.352 4.216C13.352 8.856 14.04 15.992 15.416 25.624C15.48 26.104 15.704 26.792 16.088 27.688C16.248 28.072 16.392 28.488 16.52 28.936C16.68 29.352 16.76 29.736 16.76 30.088C16.76 30.536 16.696 30.808 16.568 30.904C16.44 31 16.28 31.048 16.088 31.048C15.928 31.048 15.816 31.048 15.752 31.048ZM36.4498 31.048C34.5618 31.048 32.8498 30.632 31.3138 29.8C29.8098 28.936 28.6258 27.752 27.7617 26.248C26.9298 24.712 26.5138 22.968 26.5138 21.016C26.5138 17.816 27.6818 15.432 30.0178 13.864C32.3858 12.296 35.2818 11.512 38.7057 11.512C40.2738 11.512 41.7298 11.896 43.0738 12.664C44.4498 13.432 45.5538 14.536 46.3858 15.976C47.2178 17.416 47.6338 19.08 47.6338 20.968C47.6338 23.016 47.1058 24.808 46.0498 26.344C44.9938 27.848 43.6018 29.016 41.8738 29.848C40.1778 30.648 38.3698 31.048 36.4498 31.048ZM35.9218 28.312C38.8978 28.312 41.1538 27.64 42.6898 26.296C44.2258 24.952 44.9938 22.984 44.9938 20.392C44.9938 18.632 44.3858 17.112 43.1698 15.832C41.9858 14.552 40.3218 13.912 38.1778 13.912C36.7378 13.912 35.2818 14.184 33.8098 14.728C32.3378 15.272 31.1218 16.088 30.1618 17.176C29.2018 18.264 28.7218 19.576 28.7218 21.112C28.7218 22.392 29.0418 23.592 29.6818 24.712C30.3218 25.8 31.1858 26.68 32.2738 27.352C33.3938 27.992 34.6098 28.312 35.9218 28.312ZM50.2513 19.912C50.2513 18.984 51.1153 18.28 52.8433 17.8C54.6033 17.32 57.0993 16.952 60.3313 16.696C60.6833 16.664 61.1793 16.648 61.8193 16.648C63.0993 16.648 64.0753 16.776 64.7473 17.032C65.4193 17.288 65.7553 17.592 65.7553 17.944C65.7553 18.584 65.4513 18.904 64.8433 18.904C64.3633 18.904 63.8513 18.824 63.3073 18.664C62.5393 18.472 61.7713 18.376 61.0033 18.376C59.7873 18.376 57.9953 18.632 55.6273 19.144C54.4433 19.4 53.4513 19.592 52.6513 19.72C51.8513 19.848 51.0513 19.912 50.2513 19.912ZM77.3233 28.12C77.3233 27.736 77.3553 27.448 77.4193 27.256C77.5153 27.032 77.7233 26.92 78.0433 26.92C78.3313 26.92 78.6513 26.984 79.0033 27.112C79.3873 27.24 79.7553 27.384 80.1073 27.544C81.0033 27.928 81.8033 28.216 82.5073 28.408C83.2433 28.6 84.1553 28.696 85.2433 28.696C89.2113 28.696 92.1873 27.752 94.1713 25.864C96.1873 23.976 97.1953 21.512 97.1953 18.472C97.1953 15.752 96.4273 13.368 94.8913 11.32C93.3553 9.24 91.4033 7.608 89.0353 6.424C86.6993 5.24 84.3153 4.536 81.8833 4.312L84.6193 24.616C84.6193 25.16 84.5393 25.608 84.3793 25.96C84.2513 26.312 83.9313 26.488 83.4193 26.488C83.2913 26.552 83.0513 25.688 82.6993 23.896C82.3473 22.104 81.8673 19.464 81.2593 15.976C80.5553 11.912 80.0113 8.904 79.6273 6.952C79.2433 4.968 78.9393 3.832 78.7153 3.544C76.0593 3.544 73.8833 3.688 72.1873 3.976C70.4913 4.232 69.1953 4.536 68.2993 4.888C67.4033 5.24 67.0352 5.416 67.1952 5.416C67.0352 5.352 66.9232 5.256 66.8592 5.128C66.7952 4.968 66.7472 4.744 66.7152 4.456C66.6512 4.168 66.6032 3.96 66.5712 3.832C66.5712 3.064 67.2592 2.456 68.6353 2.008C70.0113 1.56 71.4513 1.256 72.9553 1.096C74.4913 0.935999 75.5153 0.855999 76.0273 0.855999C79.4513 0.855999 83.0193 1.56 86.7313 2.968C90.4433 4.344 93.5633 6.376 96.0913 9.064C98.6193 11.752 99.8833 14.936 99.8833 18.616C99.8833 21.368 99.1953 23.72 97.8193 25.672C96.4433 27.592 94.6353 29.048 92.3953 30.04C90.1873 31.032 87.8193 31.528 85.2913 31.528C83.2433 31.528 81.4033 31.208 79.7713 30.568C78.1393 29.928 77.3233 29.112 77.3233 28.12ZM114.637 31.048C112.749 31.048 111.037 30.632 109.501 29.8C107.997 28.936 106.813 27.752 105.949 26.248C105.117 24.712 104.701 22.968 104.701 21.016C104.701 17.816 105.869 15.432 108.205 13.864C110.573 12.296 113.469 11.512 116.893 11.512C118.461 11.512 119.917 11.896 121.261 12.664C122.637 13.432 123.741 14.536 124.573 15.976C125.405 17.416 125.821 19.08 125.821 20.968C125.821 23.016 125.293 24.808 124.237 26.344C123.181 27.848 121.789 29.016 120.061 29.848C118.365 30.648 116.557 31.048 114.637 31.048ZM114.109 28.312C117.085 28.312 119.341 27.64 120.877 26.296C122.413 24.952 123.181 22.984 123.181 20.392C123.181 18.632 122.573 17.112 121.357 15.832C120.173 14.552 118.509 13.912 116.365 13.912C114.925 13.912 113.469 14.184 111.997 14.728C110.525 15.272 109.309 16.088 108.349 17.176C107.389 18.264 106.909 19.576 106.909 21.112C106.909 22.392 107.229 23.592 107.869 24.712C108.509 25.8 109.373 26.68 110.461 27.352C111.581 27.992 112.797 28.312 114.109 28.312ZM152.295 31.096C149.095 31.096 146.679 30.552 145.047 29.464C143.415 28.344 142.599 26.328 142.599 23.416C143.239 7.416 144.263 -0.216002 145.671 0.519998C146.375 0.551999 146.727 1.64 146.727 3.784C146.727 5.096 146.503 7.864 146.055 12.088C145.479 16.952 145.191 20.52 145.191 22.792L145.239 24.184C145.239 24.888 145.447 25.592 145.863 26.296C146.311 27 146.871 27.384 147.543 27.448L156.951 28.264C157.303 28.296 157.479 28.632 157.479 29.272C157.479 29.848 157.335 30.248 157.047 30.472C156.791 30.696 156.327 30.872 155.655 31L152.295 31.096ZM162.62 31.048C161.884 31.048 161.292 29.976 160.844 27.832C160.396 25.656 160.108 23.784 159.98 22.216C159.852 20.648 159.676 18.168 159.452 14.776C159.42 14.232 159.404 13.528 159.404 12.664C159.404 11.576 159.484 10.824 159.644 10.408C159.836 9.992 160.14 9.784 160.556 9.784C160.908 9.784 161.18 9.864 161.372 10.024C161.596 10.152 161.788 10.376 161.948 10.696L161.9 12.616C161.9 14.664 161.996 16.6 162.188 18.424C162.412 20.248 162.748 22.696 163.196 25.768C163.452 27.112 163.628 28.216 163.724 29.08C163.788 29.528 163.708 29.976 163.484 30.424C163.26 30.84 162.972 31.048 162.62 31.048ZM161.42 4.648C160.716 4.648 160.188 4.376 159.836 3.832C159.516 3.288 159.356 2.616 159.356 1.816C159.356 1.464 159.372 1.208 159.404 1.048C159.372 0.535998 159.66 0.279998 160.268 0.279998C160.716 0.279998 161.164 0.391998 161.612 0.615999C162.092 0.807999 162.236 0.951999 162.044 1.048C162.364 1.88 162.524 2.536 162.524 3.016C162.524 3.432 162.428 3.768 162.236 4.024C162.044 4.248 161.772 4.456 161.42 4.648ZM168.269 25.336C168.717 24.984 169.149 24.808 169.565 24.808C169.949 24.808 170.317 24.92 170.669 25.144C171.053 25.368 171.437 25.656 171.821 26.008C172.205 26.328 172.509 26.568 172.733 26.728C173.469 27.304 174.477 27.752 175.757 28.072C177.037 28.392 178.397 28.552 179.837 28.552C181.469 28.552 182.925 28.248 184.205 27.64C185.517 27 186.173 26.152 186.173 25.096C186.173 24.136 185.821 23.384 185.117 22.84C184.413 22.264 183.565 21.848 182.573 21.592C181.581 21.336 180.269 21.096 178.637 20.872C176.429 20.616 174.669 20.296 173.357 19.912C172.077 19.528 171.053 18.904 170.285 18.04C169.517 17.144 169.133 15.896 169.133 14.296C169.133 12.568 169.949 11.288 171.581 10.456C173.213 9.592 175.085 9.16 177.197 9.16C179.117 9.16 180.749 9.576 182.093 10.408C183.469 11.208 184.173 12.36 184.205 13.864C184.269 14.728 184.141 15.416 183.821 15.928C183.501 16.408 183.117 16.648 182.669 16.648C182.413 16.648 182.189 16.552 181.997 16.36C181.837 16.168 181.757 15.912 181.757 15.592C181.757 15.08 181.933 14.52 182.285 13.912C182.125 13.144 181.597 12.568 180.701 12.184C179.837 11.8 178.797 11.608 177.581 11.608C175.789 11.608 174.365 11.944 173.309 12.616C172.253 13.256 171.725 14.024 171.725 14.92C171.725 15.88 172.109 16.616 172.877 17.128C173.645 17.64 174.573 18.008 175.661 18.232C176.781 18.424 178.365 18.616 180.413 18.808C182.109 19.032 183.485 19.304 184.541 19.624C185.629 19.944 186.541 20.568 187.277 21.496C188.013 22.392 188.381 23.688 188.381 25.384C188.381 27.144 187.565 28.536 185.933 29.56C184.301 30.552 182.349 31.048 180.077 31.048C177.165 31.048 174.557 30.552 172.253 29.56C169.981 28.568 168.653 27.16 168.269 25.336ZM200.179 31C199.859 31.064 199.651 31.096 199.555 31.096C198.563 31.096 197.875 30.36 197.491 28.888C197.139 27.416 196.963 25.352 196.963 22.696C196.963 21.608 196.995 19.912 197.059 17.608C197.123 16.2 197.155 15.144 197.155 14.44C193.219 14.44 191.251 13.992 191.251 13.096C191.251 12.808 191.283 12.584 191.347 12.424C191.443 12.264 191.635 12.184 191.923 12.184L197.155 11.848C197.123 10.28 197.043 8.568 196.915 6.712C196.787 5.048 196.707 3.512 196.675 2.104C196.675 1.752 196.819 1.512 197.107 1.384C197.395 1.224 197.699 1.144 198.019 1.144C198.403 1.144 198.723 1.352 198.979 1.768C199.235 2.152 199.363 2.552 199.363 2.968L199.699 11.752L203.683 11.944C204.291 11.88 204.803 11.992 205.219 12.28C205.667 12.568 205.907 13.048 205.939 13.72C205.267 14.008 204.531 14.184 203.731 14.248C202.931 14.312 201.587 14.344 199.699 14.344C199.699 17.32 199.843 22.216 200.131 29.032C200.131 29.736 200.131 30.232 200.131 30.52C200.163 30.776 200.179 30.936 200.179 31Z" fill="#3290FF"/>
</svg>
